<?xml version="1.0" standalone="no"?>
<!DOCTYPE svg PUBLIC "-//W3C//DTD SVG 20010904//EN"
 "http://www.w3.org/TR/2001/REC-SVG-20010904/DTD/svg10.dtd">
<svg version="1.0" xmlns="http://www.w3.org/2000/svg"
 width="1024.000000pt" height="1024.000000pt" viewBox="0 0 1024.000000 1024.000000"
 preserveAspectRatio="xMidYMid meet">
<metadata>
Created by potrace 1.14, written by Peter Selinger 2001-2017
</metadata>
<g transform="translate(0.000000,1024.000000) scale(0.100000,-0.100000)"
fill="#000000" stroke="none">
<path d="M0 5120 l0 -5120 5120 0 5120 0 0 5120 0 5120 -5120 0 -5120 0 0
-5120z m6610 4245 c35 -18 50 -43 50 -85 0 -42 -15 -67 -50 -85 -56 -29 -110
-12 -135 42 -21 43 -13 76 25 114 32 33 66 37 110 14z m680 -174 c11 -21 14
-179 4 -205 -11 -30 -43 -40 -65 -20 -16 15 -19 31 -19 115 0 75 4 101 16 113
21 22 51 20 64 -3z m-176 -67 c11 -29 6 -188 -7 -214 -14 -29 -41 -37 -62 -20
-19 16 -21 220 -3 238 17 17 65 15 72 -4z m-609 -59 c28 -27 31 -52 12 -79 -7
-9 -69 -37 -137 -61 -455 -158 -840 -296 -935 -333 -34 -13 -57 -17 -72 -11
-60 22 -42 97 31 129 52 22 456 166 686 245 85 29 200 72 255 94 55 22 108 41
118 41 10 0 29 -11 42 -25z m425 -4 c5 -11 10 -60 10 -109 0 -99 -9 -116 -57
-110 l-28 3 -3 104 c-2 67 1 108 9 117 17 20 57 17 69 -5z m1220 -62 c158 -71
197 -259 85 -412 -49 -66 -99 -99 -217 -142 -189 -68 -601 -223 -753 -283
-284 -113 -1116 -479 -1138 -501 -5 -5 12 -36 41 -73 73 -93 158 -268 206
-428 28 -93 62 -289 71 -415 l6 -80 -98 -65 c-54 -36 -104 -66 -110 -68 -7 -2
-39 21 -70 51 -32 30 -146 128 -253 217 -107 89 -198 171 -202 183 -5 12 -36
117 -69 232 -34 116 -65 214 -69 218 -13 15 -114 -32 -141 -64 -18 -22 -26
-27 -26 -15 0 9 5 16 10 16 6 0 8 2 5 5 -3 3 -24 -3 -47 -14 -32 -14 -38 -20
-25 -25 10 -4 21 0 28 9 10 14 12 14 12 -4 0 -11 -5 -17 -10 -14 -5 4 -7 -1
-3 -11 4 -11 3 -15 -4 -11 -6 4 -9 1 -7 -7 4 -17 -91 -130 -103 -123 -4 3 -10
-3 -14 -12 -3 -10 -20 -29 -38 -43 -18 -13 -27 -18 -21 -10 6 8 10 23 9 33 -3
14 0 16 9 7 10 -7 16 -7 23 2 18 25 9 43 -22 43 -16 0 -35 3 -41 7 -6 4 -32 5
-58 3 -30 -3 -45 -1 -41 5 3 6 20 10 37 10 42 0 26 14 -18 16 -24 0 -31 -2
-22 -8 9 -7 6 -8 -10 -5 -30 7 -114 -22 -105 -35 3 -6 1 -8 -5 -4 -15 9 -122
-26 -115 -38 4 -5 -1 -7 -10 -3 -9 3 -69 -13 -134 -37 -65 -23 -172 -59 -238
-80 -192 -60 -310 -114 -440 -200 -126 -84 -274 -192 -388 -284 l-67 -55 -113
47 c-61 26 -118 50 -125 55 -14 8 12 21 293 143 161 70 383 156 595 230 63 22
122 47 130 56 13 13 13 14 -2 9 -10 -3 -20 -1 -24 5 -4 7 -3 8 4 4 7 -4 12 -1
12 9 0 8 -11 20 -24 26 -52 24 -22 44 172 118 103 38 234 88 292 111 58 22
265 101 460 175 195 73 378 143 405 154 246 101 808 300 1365 483 589 194 634
210 616 220 -21 12 -21 29 1 21 14 -6 14 -3 -3 20 -17 24 -34 32 -56 28 -15
-2 -8 17 8 23 9 3 12 11 8 18 -5 7 -2 9 9 5 9 -3 17 -2 19 2 3 8 70 35 266
107 140 53 203 99 217 163 12 54 -40 121 -94 121 -23 0 -337 -108 -616 -212
-262 -97 -699 -238 -709 -228 -7 7 -5 10 4 11 8 0 4 5 -9 10 l-25 10 35 21
c22 14 29 23 20 26 -10 3 -7 9 10 19 23 13 23 14 2 8 -27 -7 -31 10 -5 19 9 4
157 62 327 128 171 67 456 177 635 244 362 137 399 144 490 103z m-4840 -61
c13 -25 13 -31 0 -55 -21 -38 -71 -44 -94 -11 -9 12 -16 29 -16 38 0 9 7 26
16 38 23 33 73 27 94 -10z m1578 -59 c12 -23 28 -37 50 -43 41 -11 40 -19 -4
-35 -27 -10 -40 -23 -53 -54 l-18 -42 -13 43 c-11 36 -19 44 -51 54 -43 12
-43 23 2 33 28 6 37 17 53 69 8 22 12 19 34 -25z m-2117 -118 c34 -35 37 -68
9 -104 -57 -72 -181 -15 -150 70 25 66 92 82 141 34z m1809 20 c0 -12 12 -7
-344 -127 -300 -101 -351 -115 -330 -94 8 8 645 227 667 229 4 1 7 -3 7 -8z
m1301 -283 c9 -21 25 -35 47 -43 35 -11 33 -25 -3 -25 -26 0 -40 -15 -49 -52
-9 -37 -25 -35 -33 2 -6 33 -28 50 -63 50 -34 0 -18 24 22 33 29 7 37 14 42
38 7 38 19 37 37 -3z m-884 -89 c334 -37 686 -192 938 -414 36 -32 22 -25 -71
37 -77 50 -300 160 -423 210 -64 25 -123 41 -271 74 l-25 6 25 -27 c14 -15 63
-52 110 -82 282 -184 355 -240 340 -258 -5 -6 -66 -50 -137 -97 l-128 -87
-386 -2 -385 -2 -212 123 c-117 67 -212 126 -212 130 0 5 19 23 43 41 23 19
44 36 47 39 3 3 44 38 92 78 76 64 118 109 118 127 0 9 -67 -5 -165 -36 -152
-47 -185 -60 -178 -71 3 -7 1 -8 -5 -4 -7 4 -20 2 -29 -3 -10 -6 -14 -11 -8
-11 5 0 -33 -24 -85 -53 -52 -29 -120 -68 -150 -88 -104 -66 -176 -104 -160
-84 9 11 0 8 -20 -8 -19 -16 -66 -52 -105 -81 -38 -30 -83 -67 -98 -84 -28
-29 -28 -31 -13 -61 16 -31 16 -32 -22 -84 -71 -96 -188 -289 -267 -442 l-78
-150 -76 -42 c-68 -38 -111 -53 -111 -38 0 3 20 67 45 142 81 247 193 446 359
642 180 212 365 355 630 486 343 170 651 220 1073 174z m-1486 -89 c31 -9 39
-14 28 -21 -8 -5 -23 -9 -35 -9 -25 0 -49 -26 -58 -62 -8 -35 -26 -37 -26 -3
0 32 -33 65 -64 65 -42 0 -39 18 4 30 23 6 43 16 45 23 3 7 10 26 16 42 l11
30 18 -42 c16 -36 25 -44 61 -53z m3139 60 c-8 -5 -19 -10 -25 -10 -5 0 -3 5
5 10 8 5 20 10 25 10 6 0 3 -5 -5 -10z m1709 -56 c51 -43 38 -115 -27 -148
-77 -39 -1847 -686 -1878 -686 -8 0 -14 4 -14 8 0 5 -20 40 -44 78 -25 38 -42
72 -38 76 4 3 115 45 247 92 132 48 269 97 305 110 36 13 160 58 275 99 116
42 291 105 390 142 99 37 268 98 375 136 107 39 222 81 255 94 81 31 116 31
154 -1z m-5729 -24 c47 -47 20 -72 -145 -132 -192 -69 -212 -75 -233 -62 -24
15 -26 47 -5 73 17 21 306 139 346 140 9 1 26 -8 37 -19z m6163 -190 c133 -50
191 -198 135 -347 -26 -70 -109 -162 -175 -193 -82 -38 -419 -160 -958 -345
-941 -323 -956 -328 -969 -307 -9 15 43 44 70 39 13 -2 21 0 18 4 -3 5 1 9 8
9 7 1 1 8 -15 16 -22 12 -25 18 -17 33 7 14 6 20 -4 24 -9 4 -12 0 -9 -12 3
-14 -2 -17 -25 -17 -17 0 -29 5 -29 13 0 10 4 10 14 1 10 -8 17 -8 26 2 9 9 9
11 0 6 -6 -3 -15 -1 -19 5 -4 7 -3 9 4 5 6 -3 14 -2 17 4 4 6 15 8 25 5 10 -3
21 -1 25 4 4 7 -1 8 -11 4 -12 -4 -15 -3 -10 5 5 8 1 10 -11 5 -10 -3 -16 -3
-13 0 4 3 49 22 100 40 52 19 138 51 190 70 52 20 167 61 255 92 157 54 218
77 735 268 140 52 299 111 352 131 146 53 188 76 209 110 23 38 24 60 2 97
-34 58 -27 59 -383 -71 -124 -45 -301 -108 -395 -140 -93 -32 -275 -97 -403
-144 -196 -73 -484 -175 -502 -178 -3 0 -10 -3 -17 -5 -6 -3 -20 0 -30 6 -15
10 -14 11 9 7 28 -5 47 17 26 30 -6 4 -8 3 -5 -2 3 -5 -3 -10 -14 -10 -19 0
-19 1 -2 13 9 8 23 11 31 8 7 -2 11 -1 8 4 -3 5 1 14 9 21 13 11 15 10 10 -6
-4 -13 -2 -12 6 4 7 12 16 22 21 22 5 0 6 -4 3 -10 -3 -5 -1 -10 5 -10 7 0 10
6 7 13 -4 14 -66 17 -74 3 -4 -5 -1 -6 7 -1 9 5 11 4 6 -4 -12 -19 -27 -1 -20
22 6 19 5 20 -9 8 -13 -10 -14 -17 -5 -35 6 -11 7 -18 3 -14 -4 4 -17 3 -29
-3 -18 -9 -19 -8 -5 3 9 7 14 19 11 26 -3 10 -7 9 -16 -4 -11 -15 -13 -15 -13
-1 0 16 15 27 52 36 3 0 8 0 11 -1 4 -2 11 8 15 21 7 17 15 22 30 18 12 -3 18
-3 15 0 -8 8 48 33 197 87 248 90 562 208 917 346 391 153 492 189 527 190 12
0 46 -9 76 -20z m-6069 -116 c21 -21 20 -57 -1 -77 -19 -17 -195 -84 -588
-226 -584 -210 -597 -214 -624 -205 -36 13 -39 53 -8 82 29 27 88 50 797 305
63 22 171 62 240 88 139 52 161 56 184 33z m312 -30 c59 -28 80 -95 49 -154
-19 -37 -43 -50 -92 -50 -52 0 -99 31 -108 69 -13 62 15 116 75 140 34 13 37
13 76 -5z m1098 -33 c67 -40 371 -225 375 -228 2 -1 -20 -55 -49 -118 -29 -63
-51 -118 -47 -121 3 -3 37 11 76 31 55 29 73 44 77 64 18 83 30 105 62 113 42
11 733 6 707 -5 -11 -5 -49 -20 -85 -34 -36 -13 -119 -46 -185 -73 -224 -92
-504 -200 -517 -200 -7 0 -28 -9 -47 -21 -34 -20 -77 -39 -296 -124 -241 -93
-747 -310 -1004 -430 -292 -135 -622 -318 -764 -424 -136 -100 -252 -233 -273
-313 l-12 -43 -12 30 c-6 17 -14 59 -17 95 -4 52 -1 75 16 113 24 55 64 115
114 172 19 22 33 46 30 55 -3 10 -2 11 4 3 6 -9 29 4 82 47 40 33 70 60 67 60
-18 0 -54 -25 -50 -34 3 -6 -1 -3 -10 7 -8 11 -12 26 -9 35 4 9 2 13 -4 9 -5
-4 -15 5 -21 18 -9 19 -9 25 1 25 8 0 7 4 -3 10 -11 7 -21 4 -34 -10 -11 -11
-17 -23 -12 -27 4 -4 11 -1 16 7 6 9 10 10 10 3 0 -18 -20 -27 -33 -14 -9 9
-3 20 25 46 36 34 56 45 43 25 -3 -5 -1 -10 5 -10 7 0 10 7 7 15 -8 19 38 56
165 132 83 49 298 158 298 150 0 -1 -7 -40 -15 -86 -8 -47 -13 -86 -12 -87 1
-2 54 22 117 53 199 96 761 347 903 403 32 12 56 24 54 26 -6 7 -393 -98 -524
-142 -73 -24 -135 -44 -137 -44 -4 0 78 197 194 465 28 66 62 129 74 141 37
33 555 253 600 254 10 0 33 -8 50 -19z m1679 -44 c55 -32 64 -47 26 -47 -9 0
-79 -23 -156 -51 -177 -66 -223 -80 -223 -69 0 16 258 200 280 200 8 0 41 -15
73 -33z m-3173 -452 c72 -37 80 -144 16 -202 -63 -58 -151 -40 -191 37 -19 37
-19 64 2 107 31 65 109 91 173 58z m2415 -233 c-3 -3 -11 0 -18 7 -9 10 -8 11
6 5 10 -3 15 -9 12 -12z m166 -29 c13 -16 12 -17 -3 -4 -10 7 -18 15 -18 17 0
8 8 3 21 -13z m-284 -9 c-3 -3 -12 -4 -19 -1 -8 3 -5 6 6 6 11 1 17 -2 13 -5z
m238 -74 c-3 -5 -12 -10 -18 -10 -7 0 -6 4 3 10 19 12 23 12 15 0z m-868 -36
c-3 -3 -12 -4 -19 -1 -8 3 -5 6 6 6 11 1 17 -2 13 -5z m2537 -93 c-2 -1 -9 1
-16 5 -7 5 -16 9 -20 9 -3 0 -10 4 -15 9 -5 6 -2 6 6 1 11 -6 13 -4 7 10 -5
15 -2 14 17 -5 12 -14 22 -27 21 -29z m1944 29 c92 -56 71 -185 -38 -244 -57
-30 -229 -90 -984 -342 -335 -112 -614 -200 -620 -197 -5 4 -1 10 10 14 17 6
15 9 -15 22 l-34 15 32 7 c18 4 35 4 38 1 4 -3 -4 -6 -17 -6 -13 0 -21 -3 -17
-6 3 -4 18 -3 34 0 21 6 24 9 12 17 -12 8 -12 10 1 19 13 9 13 10 0 10 -8 1 0
9 18 18 18 10 31 20 28 23 -3 3 27 17 67 31 174 64 426 151 597 207 200 65
553 189 610 214 82 36 -3 12 -207 -58 -120 -42 -321 -109 -448 -151 -126 -41
-303 -100 -392 -130 -89 -31 -168 -52 -175 -48 -7 4 -9 3 -5 -2 8 -8 -92 -48
-101 -40 -2 3 15 10 37 17 37 11 41 15 37 38 -2 14 -5 36 -5 49 -1 19 -5 22
-28 17 -26 -5 -26 -5 -5 4 12 6 30 7 39 4 10 -4 14 -2 10 4 -3 5 8 15 26 20
101 34 1043 362 1207 422 107 38 209 70 225 71 17 0 45 -9 63 -20z m-1894 -7
c17 -10 17 -10 -7 -10 -15 0 -27 4 -27 9 0 5 -4 7 -9 3 -5 -3 -12 -1 -15 3 -7
12 35 9 58 -5z m-2441 -155 c80 -57 221 -156 314 -221 92 -64 180 -127 195
-140 l26 -22 -58 -295 c-33 -162 -62 -304 -64 -316 -5 -17 -38 -33 -173 -81
-93 -34 -208 -73 -258 -89 l-90 -27 -240 12 c-132 7 -241 14 -242 14 0 1 -28
63 -61 137 -82 185 -222 554 -222 582 1 16 19 36 63 69 34 26 112 84 172 131
61 46 153 114 205 151 52 37 135 97 183 132 49 36 92 65 97 65 4 0 73 -46 153
-102z m3142 66 c18 -18 13 -59 -8 -81 -16 -16 -644 -227 -704 -237 -7 -1 -16
-5 -19 -9 -11 -10 -24 -8 -24 3 0 6 15 17 33 25 20 9 25 14 14 15 -27 0 -15
24 14 29 23 3 23 4 4 12 -14 7 -9 8 20 4 22 -2 34 -2 26 2 -10 4 -8 9 10 20
13 8 16 12 7 9 -11 -3 -17 0 -15 7 2 15 88 49 307 124 91 31 183 64 205 74 51
23 109 24 130 3z m-1676 -213 c171 -167 218 -218 210 -228 -20 -23 -292 -200
-399 -259 -119 -65 -301 -153 -470 -226 -96 -42 -253 -108 -256 -108 0 0 7 46
17 103 21 124 59 414 59 453 0 25 18 42 146 138 80 61 214 163 297 228 84 65
157 117 163 115 7 -1 111 -98 233 -216z m1008 -7 c-3 -3 -12 -4 -19 -1 -8 3
-5 6 6 6 11 1 17 -2 13 -5z m-382 -63 c-38 -109 -101 -212 -206 -336 -134
-159 -268 -274 -475 -405 -471 -300 -1058 -527 -2032 -786 -136 -36 -357 -97
-492 -136 -135 -39 -258 -74 -275 -79 -211 -57 -215 -57 -215 -15 0 58 25 70
360 170 173 51 404 118 513 147 108 30 197 56 197 59 0 3 -37 18 -82 33 -46
15 -105 37 -132 50 l-48 22 87 108 c48 60 92 110 99 113 7 3 78 -4 157 -15
183 -25 419 -50 579 -60 l125 -8 165 64 c388 151 560 230 845 387 190 105 460
287 571 384 94 83 196 208 240 293 29 59 38 63 19 10z m-4214 -58 c13 -16 12
-17 -3 -4 -10 7 -18 15 -18 17 0 8 8 3 21 -13z m859 -38 c119 -32 310 -98 310
-107 0 -4 -13 -14 -29 -23 -16 -8 -31 -20 -33 -26 -3 -9 -24 -7 -78 6 -141 35
-285 109 -293 152 -5 30 3 29 123 -2z m3505 -3 c-3 -3 -11 0 -18 7 -9 10 -8
11 6 5 10 -3 15 -9 12 -12z m1864 -128 c27 -34 26 -47 -1 -78 -22 -24 -421
-162 -1288 -444 -231 -76 -233 -76 -187 -55 21 10 35 21 32 25 -4 4 2 4 13 1
14 -3 28 3 43 21 12 14 27 23 32 19 6 -4 7 -1 2 7 -6 10 -3 12 13 8 12 -4 20
-2 17 2 -3 5 0 10 7 13 7 2 0 2 -17 0 l-30 -3 30 14 c17 8 26 15 20 16 -5 0
14 12 43 26 29 15 51 28 49 31 -3 2 -20 -3 -37 -12 -26 -13 -35 -14 -44 -4 -8
9 -8 10 2 5 7 -4 24 -1 37 8 35 23 118 53 565 206 223 76 455 156 515 178 135
48 157 50 184 16z m-6422 -46 c-3 -8 -6 -5 -6 6 -1 11 2 17 5 13 3 -3 4 -12 1
-19z m5030 16 c-3 -3 -12 -4 -19 -1 -8 3 -5 6 6 6 11 1 17 -2 13 -5z m43 -23
c-8 -5 -26 -11 -40 -15 -21 -5 -20 -3 5 9 32 15 60 20 35 6z m-5083 -73 c-3
-8 -6 -5 -6 6 -1 11 2 17 5 13 3 -3 4 -12 1 -19z m743 -76 c0 -15 6 -51 14
-80 l13 -53 -36 -16 c-130 -57 -235 -92 -250 -83 -13 8 -11 10 9 11 23 1 23 2
-5 9 -28 7 -29 8 -5 10 l25 2 -25 8 c-18 6 -20 8 -6 9 15 1 17 8 14 46 -2 31
1 45 9 45 17 0 17 17 1 24 -7 3 0 4 15 2 15 -2 25 -1 22 2 -3 3 30 19 72 35
43 17 87 36 98 43 28 20 35 17 35 -14z m4377 -228 c-3 -3 -12 -4 -19 -1 -8 3
-5 6 6 6 11 1 17 -2 13 -5z m-4248 -210 c18 -47 32 -86 30 -88 -2 -1 -51 -19
-109 -39 -626 -215 -910 -314 -1044 -362 -105 -37 -167 -54 -183 -51 -66 17
-84 92 -35 146 30 34 131 73 737 281 176 60 374 130 440 154 66 24 122 44 125
44 3 0 20 -38 39 -85z m4921 35 c73 -41 119 -144 104 -234 -15 -94 -96 -199
-183 -238 -42 -18 -178 -62 -681 -218 -124 -39 -371 -117 -550 -174 -569 -181
-714 -225 -736 -225 -26 0 -44 18 -44 45 0 52 17 60 403 185 1018 332 1416
465 1458 486 74 37 116 97 107 155 -4 27 -61 69 -93 69 -12 0 -104 -27 -205
-60 -100 -32 -195 -61 -211 -64 -15 -2 -32 -7 -38 -10 -5 -4 -12 -2 -16 4 -3
5 0 10 7 10 19 0 68 23 68 33 0 4 -8 7 -17 8 -14 0 -15 2 -3 6 8 3 23 14 33
24 17 18 17 19 -5 21 -13 0 -29 1 -35 1 -24 -1 -3 15 28 22 19 4 27 10 20 14
-14 9 92 52 299 123 163 55 216 58 290 17z m770 -149 c0 -27 38 -50 84 -50 47
0 38 -11 -23 -30 -37 -12 -47 -21 -59 -52 -18 -46 -30 -48 -45 -7 -12 30 -13
31 -62 26 -27 -3 -85 -17 -127 -30 -43 -14 -78 -22 -78 -18 0 4 56 31 126 60
115 49 127 57 145 93 20 39 39 43 39 8z m-2671 -117 c-24 -28 -143 -166 -159
-184 -61 -67 -274 -217 -399 -280 -88 -45 -270 -113 -279 -104 -2 1 18 48 44
104 l47 102 306 153 c168 85 335 170 371 190 72 40 90 44 69 19z m1201 -23 c8
-5 11 -10 5 -10 -5 0 -17 5 -25 10 -8 5 -10 10 -5 10 6 0 17 -5 25 -10z m-53
-26 c-3 -3 -12 -4 -19 -1 -8 3 -5 6 6 6 11 1 17 -2 13 -5z m-3983 -74 c20 -28
34 -55 31 -59 -2 -5 -276 -99 -607 -209 -902 -300 -882 -294 -912 -280 -51 23
-26 108 37 127 18 5 205 69 417 141 653 224 964 328 982 329 9 1 32 -22 52
-49z m5887 20 c26 -14 26 -71 -1 -95 -25 -22 -813 -285 -856 -285 -17 0 -37 7
-44 15 -18 22 10 79 47 98 15 8 145 54 288 102 143 49 316 108 385 131 133 47
150 50 181 34z m-4436 -525 c-38 -12 -252 -79 -475 -148 -433 -134 -682 -218
-930 -314 -161 -63 -300 -129 -245 -118 125 27 687 157 1027 239 l57 14 3
-562 3 -561 29 -58 c51 -105 164 -164 300 -155 158 10 278 113 305 262 7 38
11 244 11 552 l0 493 43 11 c68 17 350 98 370 105 17 7 18 -19 15 -606 -4
-681 -2 -658 -73 -804 -97 -200 -276 -346 -501 -407 -61 -16 -109 -21 -209
-22 -152 -1 -219 14 -340 74 -152 75 -253 176 -325 325 -66 138 -70 172 -70
630 l0 406 -59 -32 -60 -33 -3 -180 c-2 -100 -5 -417 -6 -706 -2 -289 -6 -528
-10 -532 -6 -5 -392 -108 -407 -108 -3 0 -5 262 -5 582 0 350 -4 578 -9 573
-11 -12 -72 -116 -248 -427 -74 -131 -138 -238 -143 -238 -4 0 -97 151 -206
335 -110 184 -202 334 -205 335 -4 0 -6 -46 -5 -102 0 -57 0 -346 -2 -643 l-2
-540 -197 -59 c-109 -32 -206 -60 -215 -63 -17 -5 -18 43 -18 914 0 506 -3
922 -6 926 -9 9 -150 -45 -245 -94 l-84 -44 4 -273 3 -273 -37 15 c-120 51
-209 129 -253 225 -23 49 -27 69 -27 157 0 96 2 103 38 177 62 126 170 219
319 277 42 16 198 62 345 100 147 39 299 80 336 91 38 11 70 19 71 17 4 -4
135 -243 266 -480 63 -114 118 -204 121 -200 4 4 43 72 87 152 178 324 293
532 304 550 7 10 27 21 44 25 18 3 156 39 306 81 150 41 331 91 403 110 l129
36 86 -26 c122 -38 269 -32 520 19 145 29 163 29 75 0z m3163 -51 c273 -56
487 -245 583 -514 22 -63 23 -77 27 -462 3 -380 2 -401 -18 -475 -72 -264
-288 -475 -555 -544 -105 -27 -299 -29 -400 -5 -188 45 -373 183 -475 355
-102 173 -114 259 -102 731 11 383 10 382 88 533 51 97 180 227 289 290 83 49
173 83 253 97 81 13 229 11 310 -6z m-1399 -297 c216 -75 344 -255 328 -462
-13 -170 -95 -276 -419 -540 -81 -66 -145 -121 -143 -123 2 -2 104 2 227 8
122 6 253 12 291 13 l67 3 0 -183 0 -183 -52 0 c-63 0 -377 -23 -763 -55 -159
-14 -306 -25 -327 -25 l-38 0 0 148 1 147 161 145 c89 80 212 189 272 243 253
226 299 271 319 316 24 56 18 109 -18 157 -72 95 -231 83 -311 -23 -21 -28
-35 -62 -44 -107 l-12 -66 -186 0 -185 0 7 70 c23 247 209 463 458 530 102 28
265 22 367 -13z m-3817 -1524 c0 -10 0 -27 -1 -37 -1 -11 2 -17 5 -13 8 8 34
-11 34 -25 0 -5 -10 -7 -22 -3 -22 6 -22 6 2 -15 14 -12 20 -19 13 -16 -24 12
-22 -12 2 -28 14 -9 25 -22 25 -30 0 -7 9 -21 20 -31 11 -10 20 -23 20 -30 0
-6 14 -24 30 -40 24 -23 30 -35 25 -54 l-6 -25 21 25 c19 22 19 21 -2 -16 -25
-45 -203 -230 -194 -202 3 10 6 140 6 288 0 173 4 269 10 269 6 0 11 -8 12
-17z m4186 -179 c-13 -13 -317 -119 -488 -170 -102 -30 -232 -70 -290 -89 -58
-18 -186 -57 -285 -85 -99 -29 -249 -72 -332 -97 -165 -49 -196 -50 -215 -7
-10 20 -8 29 9 52 16 22 43 34 154 65 186 52 488 139 650 186 96 28 178 44
280 55 122 14 354 57 464 86 37 10 60 12 53 4z m1010 -280 c27 -19 28 -48 3
-73 -19 -19 -537 -193 -971 -326 -259 -79 -263 -80 -225 -58 27 15 28 18 10
21 l-20 5 20 8 c17 8 16 9 -7 6 -15 -2 -25 0 -22 4 3 5 14 9 25 9 11 0 18 3
16 8 -3 4 -1 15 2 26 7 18 8 18 26 0 17 -17 18 -17 12 -2 -4 12 1 21 15 29 28
15 211 77 558 189 157 50 337 109 400 130 135 45 129 44 158 24z m-2898 -50
l-25 -15 25 7 c25 7 25 7 6 -15 -15 -16 -16 -21 -5 -22 8 0 1 -7 -16 -14 l-30
-13 30 -4 c24 -2 7 -11 -80 -40 -185 -62 -757 -229 -806 -235 -41 -5 -48 -3
-58 16 -15 27 -1 56 37 75 15 7 81 30 147 50 66 21 140 44 165 51 95 30 505
147 559 160 73 17 81 17 51 -1z m1260 -68 c0 -5 -338 -116 -662 -217 -131 -41
-168 -56 -172 -72 -2 -10 -9 -16 -15 -13 -5 4 -12 2 -16 -3 -7 -13 27 -31 59
-31 53 0 33 -19 -46 -43 -888 -272 -989 -301 -1007 -290 -44 27 -7 96 62 113
103 27 236 73 232 81 -3 4 3 12 12 18 10 6 13 11 8 11 -12 0 -232 -64 -427
-124 -81 -25 -150 -46 -153 -46 -3 0 -5 6 -5 13 0 7 -12 18 -27 25 -16 6 -19
9 -8 7 16 -4 20 1 21 21 1 14 4 27 5 28 8 6 335 108 614 192 526 156 774 224
710 195 -14 -7 -16 -10 -5 -11 10 -1 9 -4 -5 -10 -11 -5 -14 -9 -7 -9 9 -1 10
-6 3 -20 -6 -10 -8 -21 -6 -23 3 -3 -86 -33 -197 -67 -112 -34 -218 -67 -236
-73 -18 -5 -32 -12 -30 -13 9 -9 360 86 713 193 294 88 567 169 578 171 4 0 7
-1 7 -3z m-2498 -90 c8 -11 1 -45 -11 -59 -4 -4 -133 -46 -287 -92 -153 -47
-364 -112 -469 -145 -104 -32 -280 -86 -390 -118 -110 -33 -267 -81 -349 -106
-162 -51 -209 -55 -214 -19 -5 33 28 58 109 82 41 12 153 47 249 77 96 30 258
79 360 110 102 31 358 109 570 174 221 68 394 116 405 113 11 -3 23 -11 27
-17z m1212 9 c-11 -8 -14 -15 -6 -15 17 0 56 -40 40 -41 -7 0 -4 -4 7 -8 15
-6 6 -12 -45 -30 -132 -45 -411 -130 -610 -186 -113 -31 -277 -79 -365 -105
-88 -27 -241 -72 -340 -100 -239 -69 -454 -135 -716 -222 -218 -72 -259 -78
-273 -43 -8 22 10 62 35 75 22 12 263 88 429 135 96 27 421 126 540 165 132
42 1009 312 1120 344 142 42 149 43 179 45 24 1 24 0 5 -14z m2620 -131 c22
-21 20 -47 -4 -69 -23 -21 -413 -155 -785 -269 -249 -77 -391 -115 -311 -85
21 9 25 14 15 20 -11 7 -11 9 -1 9 10 0 9 4 -3 16 -14 15 -14 18 0 33 8 10 15
22 15 28 0 6 24 17 53 26 45 13 272 85 837 266 140 45 162 48 184 25z m-1374
-198 c0 -2 -7 -7 -16 -10 -8 -3 -12 -2 -9 4 6 10 25 14 25 6z m-45 -17 c4 -6
13 -8 21 -5 7 3 29 -1 47 -9 19 -8 38 -11 42 -7 5 4 5 2 2 -5 -4 -6 -2 -13 5
-15 12 -4 -292 -110 -512 -178 -177 -54 -627 -197 -858 -271 -106 -35 -192
-57 -203 -54 -32 10 -43 42 -25 71 21 31 30 35 376 143 162 51 349 110 415
131 298 94 664 207 677 209 4 1 10 -4 13 -10z m270 1 c-3 -5 -14 -10 -23 -9
-14 0 -13 2 3 9 27 11 27 11 20 0z m-60 -20 c-27 -12 -43 -12 -25 0 8 5 22 9
30 9 10 0 8 -3 -5 -9z m-48 -16 c-3 -3 -12 -4 -19 -1 -8 3 -5 6 6 6 11 1 17
-2 13 -5z m-2217 -154 c0 -5 -7 -10 -16 -10 -8 0 -12 5 -9 10 3 6 10 10 16 10
5 0 9 -4 9 -10z m3405 -86 c60 -28 82 -111 45 -171 -35 -58 -98 -77 -164 -49
-44 18 -66 52 -66 101 0 52 17 84 59 112 40 27 80 29 126 7z m-3868 -289 c136
-40 164 -214 48 -294 -124 -84 -289 35 -247 177 16 52 60 101 107 117 22 8 40
14 41 15 0 0 23 -7 51 -15z m704 -262 c63 -32 95 -75 105 -140 19 -130 -83
-242 -212 -231 -41 4 -63 12 -92 35 -62 50 -82 88 -82 155 0 95 45 165 126
193 58 21 95 18 155 -12z"/>
<path d="M5310 7330 c-13 -8 -12 -10 3 -10 9 0 17 5 17 10 0 12 -1 12 -20 0z"/>
<path d="M5268 7308 c6 -6 18 -8 28 -6 14 3 12 5 -9 10 -19 3 -25 2 -19 -4z"/>
<path d="M5212 7286 c7 -8 15 -12 17 -11 5 6 -10 25 -20 25 -5 0 -4 -6 3 -14z"/>
<path d="M5354 7292 c7 -12 2 -14 -38 -16 -11 -1 -20 -7 -22 -14 -1 -7 0 -8 3
-2 7 15 23 12 23 -5 0 -8 -4 -15 -9 -15 -5 0 -13 -9 -16 -20 -3 -11 -13 -20
-21 -20 -9 0 -12 -5 -8 -12 5 -8 13 -4 26 13 11 13 33 38 49 56 20 22 26 34
18 39 -8 4 -9 3 -5 -4z"/>
<path d="M5160 7275 c-7 -8 -19 -15 -28 -15 -8 0 -13 -3 -9 -6 8 -9 77 18 71
28 -8 12 -20 10 -34 -7z"/>
<path d="M5165 7240 c-3 -5 -1 -10 4 -10 6 0 11 5 11 10 0 6 -2 10 -4 10 -3 0
-8 -4 -11 -10z"/>
<path d="M5215 7220 c4 -6 11 -8 16 -5 14 9 11 15 -7 15 -8 0 -12 -5 -9 -10z"/>
<path d="M4890 8331 c137 -15 180 -23 174 -32 -3 -5 -17 -7 -32 -4 -22 4 -23
4 -7 -3 11 -5 49 -12 84 -16 l64 -7 -32 27 c-36 30 -44 31 -211 38 -96 4 -102
3 -40 -3z"/>
<path d="M3870 8090 c-9 -6 -10 -10 -3 -10 6 0 15 5 18 10 8 12 4 12 -15 0z"/>
<path d="M3830 8060 c0 -5 7 -7 15 -4 8 4 15 8 15 10 0 2 -7 4 -15 4 -8 0 -15
-4 -15 -10z"/>
<path d="M3775 8025 l-30 -25 33 16 c17 8 32 20 32 25 0 13 -1 12 -35 -16z"/>
<path d="M3714 7984 c-18 -14 -18 -15 4 -4 12 6 22 13 22 15 0 8 -5 6 -26 -11z"/>
<path d="M6926 7053 c-6 -14 -5 -15 5 -6 7 7 10 15 7 18 -3 3 -9 -2 -12 -12z"/>
<path d="M6969 7043 c-13 -16 -12 -17 4 -4 16 13 21 21 13 21 -2 0 -10 -8 -17
-17z"/>
<path d="M6910 7018 c0 -11 12 -10 30 2 12 7 10 9 -8 7 -12 0 -22 -5 -22 -9z"/>
<path d="M6851 6937 c-8 -10 -7 -14 4 -14 8 0 12 4 9 8 -2 4 6 10 18 12 22 4
22 4 2 6 -12 0 -27 -5 -33 -12z"/>
<path d="M2464 6604 c-18 -14 -18 -15 4 -4 12 6 22 13 22 15 0 8 -5 6 -26 -11z"/>
<path d="M2410 6599 c0 -5 5 -7 10 -4 6 3 10 8 10 11 0 2 -4 4 -10 4 -5 0 -10
-5 -10 -11z"/>
<path d="M7287 6503 c-10 -10 -8 -23 4 -23 5 0 7 5 3 11 -5 9 1 10 22 5 21 -5
25 -4 14 4 -17 11 -34 13 -43 3z"/>
<path d="M7290 6440 c-8 -5 -12 -11 -10 -14 3 -2 14 2 24 10 22 15 10 19 -14
4z"/>
<path d="M7318 5613 c7 -3 16 -2 19 1 4 3 -2 6 -13 5 -11 0 -14 -3 -6 -6z"/>
<path d="M7579 4429 c-134 -21 -226 -103 -264 -233 -14 -48 -16 -103 -13 -384
4 -355 6 -370 65 -455 134 -193 476 -157 577 62 20 44 21 59 21 411 l0 365
-26 55 c-63 134 -204 204 -360 179z"/>
<path d="M6093 1983 c-7 -2 -13 -9 -13 -15 0 -6 6 -5 15 2 12 10 19 10 27 2 7
-7 19 -12 28 -12 9 1 6 6 -10 15 -27 16 -29 16 -47 8z"/>
</g>
</svg>
